<?xml version="1.0" encoding="UTF-8" standalone="no"?>
<!-- Created with Inkscape (http://www.inkscape.org/) -->

<svg
   xmlns:dc="http://purl.org/dc/elements/1.1/"
   xmlns:cc="http://creativecommons.org/ns#"
   xmlns:rdf="http://www.w3.org/1999/02/22-rdf-syntax-ns#"
   xmlns:svg="http://www.w3.org/2000/svg"
   xmlns="http://www.w3.org/2000/svg"
   xmlns:sodipodi="http://sodipodi.sourceforge.net/DTD/sodipodi-0.dtd"
   xmlns:inkscape="http://www.inkscape.org/namespaces/inkscape"
   width="553.99603"
   height="381.6496"
   id="svg3241"
   version="1.1"
   inkscape:version="0.48.4 r9939"
   sodipodi:docname="contact.svg">
  <defs
     id="defs3243">
    <filter
       inkscape:collect="always"
       id="filter3877"
       x="-0.097324416"
       width="1.1946488"
       y="-0.15645161"
       height="1.3129032">
      <feGaussianBlur
         inkscape:collect="always"
         stdDeviation="2.4684743"
         id="feGaussianBlur3879" />
    </filter>
    <filter
       inkscape:collect="always"
       id="filter3881"
       x="-0.078244399"
       width="1.1564888"
       y="-0.25732084"
       height="1.5146417">
      <feGaussianBlur
         inkscape:collect="always"
         stdDeviation="1.9561048"
         id="feGaussianBlur3883" />
    </filter>
  </defs>
  <sodipodi:namedview
     inkscape:document-units="mm"
     pagecolor="#ffffff"
     bordercolor="#666666"
     borderopacity="1.0"
     inkscape:pageopacity="0.0"
     inkscape:pageshadow="2"
     inkscape:zoom="1.28"
     inkscape:cx="331.91101"
     inkscape:cy="168.14444"
     inkscape:current-layer="layer1"
     id="namedview3245"
     showgrid="false"
     units="mm"
     borderlayer="false"
     fit-margin-top="0"
     fit-margin-left="0"
     fit-margin-right="0"
     fit-margin-bottom="0"
     inkscape:window-width="1920"
     inkscape:window-height="1018"
     inkscape:window-x="-8"
     inkscape:window-y="-8"
     inkscape:window-maximized="1"
     height="52mm" />
  <metadata
     id="metadata3247">
    <rdf:RDF>
      <cc:Work
         rdf:about="">
        <dc:format>image/svg+xml</dc:format>
        <dc:type
           rdf:resource="http://purl.org/dc/dcmitype/StillImage" />
        <dc:title />
      </cc:Work>
    </rdf:RDF>
  </metadata>
  <g
     inkscape:label="Layer 1"
     inkscape:groupmode="layer"
     id="layer1"
     transform="translate(72.759457,-185.22498)">
    <ellipse
       style="fill:#ffffff;"
       id="ellipse3061-6-2"
       ry="91.110001"
       rx="98.739998"
       cx="146.60001"
       cy="109.9"
       sodipodi:cx="146.60001"
       sodipodi:cy="109.9"
       sodipodi:rx="98.739998"
       sodipodi:ry="91.110001"
       d="m 245.34,109.9 c 0,50.31867 -44.2074,91.11 -98.73999,91.11 -54.532599,0 -98.740002,-40.79133 -98.740002,-91.11 0,-50.318662 44.207403,-91.109999 98.740002,-91.109999 54.53259,0 98.73999,40.791337 98.73999,91.109999 z"
       transform="matrix(0.99477123,-0.10212829,0.10212829,0.99477123,-5.3982903,223.30688)" />
    <rect
       rx="25.959999"
       height="188.89999"
       width="190.3"
       y="307.11795"
       x="23.244011"
       id="rect3065-9-0"
       style="fill:#a4c639;stroke:#ffffff;stroke-width:7.16800021999999970;"
       transform="matrix(0.99477124,-0.10212828,0.10212828,0.99477124,0,0)" />
    <rect
       id="rect3068-5-0"
       x="259.49863"
       y="113.82446"
       width="10.144"
       height="43"
       transform="matrix(0.92126511,0.3889352,-0.3889352,0.92126511,0,0)"
       rx="5.072"
       style="fill:#a4c639;stroke:#ffffff;stroke-width:7.16800021999999970;" />
    <ellipse
       d="m 238.17001,109.9 c 0,46.3643 -40.99729,83.95 -91.57,83.95 -50.572718,0 -91.570004,-37.5857 -91.570004,-83.95 0,-46.364302 40.997286,-83.949995 91.570004,-83.949995 50.57271,0 91.57,37.585693 91.57,83.949995 z"
       id="ellipse3070-6-3"
       ry="83.949997"
       cy="109.9"
       rx="91.57"
       cx="146.60001"
       sodipodi:cx="146.60001"
       sodipodi:cy="109.9"
       sodipodi:rx="91.57"
       sodipodi:ry="83.949997"
       style="fill:#a4c639;stroke:#ffffff;stroke-width:7.16800021999999970;stroke-opacity:0;"
       transform="matrix(0.99477123,-0.10212829,0.10212829,0.99477123,-5.3982903,223.30688)" />
    <rect
       style="fill:#a4c639;stroke:#ffffff;stroke-width:7.16800021999999970;"
       id="use3073-0-3"
       rx="23.92"
       height="132.89999"
       width="47.84"
       y="429.52679"
       x="103.76952" />
    <line
       id="line3077-2-6"
       y2="311.19199"
       y1="331.31125"
       x2="249.91226"
       x1="53.942268"
       style="fill:#a4c639;stroke:#ffffff;stroke-width:7.16800021999999970;" />
    <rect
       style="fill:#a4c639;stroke:#ffffff;stroke-width:7.16800021999999970;"
       rx="5.072"
       transform="matrix(-0.82302,0.5680124,0.5680124,0.82302,0,0)"
       height="43"
       width="10.144"
       y="227.69757"
       x="51.935398"
       id="rect3563-2" />
    <ellipse
       transform="matrix(-0.99477123,0.10212829,0.10212829,0.99477123,286.16917,193.37309)"
       style="fill:#a4c639;stroke:#ffffff;stroke-width:7.16800021999999970;stroke-opacity:0;"
       sodipodi:ry="83.949997"
       sodipodi:rx="91.57"
       sodipodi:cy="109.9"
       sodipodi:cx="146.60001"
       cx="146.60001"
       rx="91.57"
       cy="109.9"
       ry="83.949997"
       id="ellipse3565-8"
       d="m 238.17001,109.9 c 0,46.3643 -40.99729,83.95 -91.57,83.95 -50.572718,0 -91.570004,-37.5857 -91.570004,-83.95 0,-46.364302 40.997286,-83.949995 91.570004,-83.949995 50.57271,0 91.57,37.585693 91.57,83.949995 z" />
    <rect
       transform="matrix(-0.99948193,0.0321851,0.0321851,0.99948193,0,0)"
       style="fill:#a4c639;stroke:#ffffff;stroke-width:7.16800021999999970;"
       id="use3569-3"
       rx="23.92"
       height="132.89999"
       width="47.84"
       y="428.63474"
       x="-217.74736" />
    <rect
       transform="matrix(-0.99918701,0.04031532,0.04031532,0.99918701,0,0)"
       style="fill:#a4c639;stroke:#ffffff;stroke-width:7.16800021999999970;stroke-opacity:0;"
       rx="22.120001"
       height="181.8"
       width="183.2"
       y="311.83932"
       x="-235.36066"
       id="rect3571-9" />
    <line
       style="fill:#a4c639;stroke:#ffffff;stroke-width:7.16800021999999970;"
       x1="250.01175"
       x2="54.041756"
       y1="311.18179"
       y2="331.30103"
       id="line3573-1" />
    <circle
       style="fill:#ffffff;"
       id="circle3081-6-2"
       r="7.6700001"
       cx="188.24001"
       cy="69.077003"
       sodipodi:cx="188.24001"
       sodipodi:cy="69.077003"
       sodipodi:rx="7.6700001"
       sodipodi:ry="7.6700001"
       d="m 195.91001,69.077003 c 0,4.236025 -3.43398,7.670001 -7.67,7.670001 -4.23603,0 -7.67,-3.433976 -7.67,-7.670001 0,-4.236024 3.43397,-7.67 7.67,-7.67 4.23602,0 7.67,3.433976 7.67,7.67 z"
       transform="matrix(0.99477123,-0.10212829,0.10212829,0.99477123,-5.3982903,223.30688)" />
    <circle
       style="fill:#ffffff;"
       id="circle3083-3-4"
       r="7.6700001"
       cx="104.88"
       cy="69.077003"
       sodipodi:cx="104.88"
       sodipodi:cy="69.077003"
       sodipodi:rx="7.6700001"
       sodipodi:ry="7.6700001"
       d="m 112.55,69.077003 c 0,4.236025 -3.43398,7.670001 -7.67,7.670001 -4.23603,0 -7.670003,-3.433976 -7.670003,-7.670001 0,-4.236024 3.433973,-7.67 7.670003,-7.67 4.23602,0 7.67,3.433976 7.67,7.67 z"
       transform="matrix(0.99477123,-0.10212829,0.10212829,0.99477123,-5.3982903,229.06515)" />
    <rect
       inkscape:transform-center-y="19.381524"
       inkscape:transform-center-x="-49.898302"
       transform="matrix(-0.74767349,0.66406652,0.66406652,0.74767349,0,0)"
       style="fill:#a4c639;stroke:#ffffff;stroke-width:7.16800021999999970;"
       id="rect3567-4"
       rx="23.92"
       height="132.89999"
       width="47.84"
       y="428.10751"
       x="8.0901308" />
    <rect
       transform="matrix(0.5967447,0.80243116,-0.80243116,0.5967447,0,0)"
       x="294.04376"
       y="168.09766"
       width="47.84"
       height="132.89999"
       rx="23.92"
       id="c-8-6"
       style="fill:#a4c639;stroke:#ffffff;stroke-width:7.16800021999999970;" />
    <path
       style="fill:#ffffff;fill-opacity:1;stroke:none;"
       d="m 14.56474,331.99519 237.54766,-21.98313 -0.2779,30.35172 z"
       id="path3338"
       inkscape:connector-curvature="0"
       sodipodi:nodetypes="cccc" />
    <text
       xml:space="preserve"
       style="font-size:40px;font-style:normal;font-weight:normal;line-height:125%;letter-spacing:0px;word-spacing:0px;fill:#000000;fill-opacity:1;stroke:none;font-family:Sans"
       x="284.02747"
       y="306.28156"
       id="text4118"
       sodipodi:linespacing="125%"><tspan
         sodipodi:role="line"
         id="tspan4120"
         x="284.02747"
         y="306.28156">@</tspan></text>
    <rect
       style="fill:#ffffff;fill-opacity:1;stroke:#000000;stroke-width:2.50157475;stroke-linecap:butt;stroke-linejoin:miter;stroke-miterlimit:0;stroke-opacity:1;stroke-dasharray:none;filter:url(#filter3877)"
       id="rect4166"
       width="60.872066"
       height="37.866905"
       x="345.60876"
       y="276.76508" />
    <path
       style="fill:none;stroke:#000000;stroke-width:2.5;stroke-linecap:butt;stroke-linejoin:round;stroke-miterlimit:4;stroke-opacity:1;stroke-dasharray:none;filter:url(#filter3881)"
       d="m 346.24845,276.99759 29.37259,18.24435 30.62725,-18.24435 z"
       id="path4168"
       inkscape:connector-curvature="0"
       sodipodi:nodetypes="cccc" />
  </g>
</svg>
