<?xml version="1.0" encoding="UTF-8" standalone="no"?>
<!-- Created with Inkscape (http://www.inkscape.org/) -->

<svg
   xmlns:dc="http://purl.org/dc/elements/1.1/"
   xmlns:cc="http://creativecommons.org/ns#"
   xmlns:rdf="http://www.w3.org/1999/02/22-rdf-syntax-ns#"
   xmlns:svg="http://www.w3.org/2000/svg"
   xmlns="http://www.w3.org/2000/svg"
   xmlns:sodipodi="http://sodipodi.sourceforge.net/DTD/sodipodi-0.dtd"
   xmlns:inkscape="http://www.inkscape.org/namespaces/inkscape"
   width="802.02753"
   height="512.75195"
   id="svg3241"
   version="1.1"
   inkscape:version="0.48.4 r9939"
   sodipodi:docname="contact.svg">
  <defs
     id="defs3243" />
  <sodipodi:namedview
     inkscape:document-units="mm"
     pagecolor="#ffffff"
     bordercolor="#666666"
     borderopacity="1.0"
     inkscape:pageopacity="0.0"
     inkscape:pageshadow="2"
     inkscape:zoom="0.61399264"
     inkscape:cx="177.11381"
     inkscape:cy="387.14061"
     inkscape:current-layer="layer1"
     id="namedview3245"
     showgrid="false"
     units="mm"
     borderlayer="false"
     fit-margin-top="0"
     fit-margin-left="0"
     fit-margin-right="0"
     fit-margin-bottom="0"
     inkscape:window-width="1920"
     inkscape:window-height="1018"
     inkscape:window-x="-8"
     inkscape:window-y="-8"
     inkscape:window-maximized="1" />
  <metadata
     id="metadata3247">
    <rdf:RDF>
      <cc:Work
         rdf:about="">
        <dc:format>image/svg+xml</dc:format>
        <dc:type
           rdf:resource="http://purl.org/dc/dcmitype/StillImage" />
        <dc:title />
      </cc:Work>
    </rdf:RDF>
  </metadata>
  <g
     inkscape:label="Layer 1"
     inkscape:groupmode="layer"
     id="layer1"
     transform="translate(72.759457,-54.122461)">
    <ellipse
       style="fill:#ffffff"
       id="ellipse3061-6-2"
       ry="91.110001"
       rx="98.739998"
       cx="146.60001"
       cy="109.9"
       sodipodi:cx="146.60001"
       sodipodi:cy="109.9"
       sodipodi:rx="98.739998"
       sodipodi:ry="91.110001"
       d="m 245.34,109.9 c 0,50.31867 -44.2074,91.11 -98.73999,91.11 -54.532599,0 -98.740002,-40.79133 -98.740002,-91.11 0,-50.318662 44.207403,-91.109999 98.740002,-91.109999 54.53259,0 98.73999,40.791337 98.73999,91.109999 z"
       transform="matrix(0.99477123,-0.10212829,0.10212829,0.99477123,1.1164458,177.70373)" />
    <rect
       rx="25.959999"
       height="188.89999"
       width="190.3"
       y="262.41858"
       x="34.382053"
       id="rect3065-9-0"
       style="fill:#a4c639;stroke:#ffffff;stroke-width:7.16800022"
       transform="matrix(0.99477124,-0.10212828,0.10212828,0.99477124,0,0)" />
    <rect
       id="rect3068-5-0"
       x="247.76375"
       y="69.278053"
       width="10.144"
       height="43"
       transform="matrix(0.92126511,0.3889352,-0.3889352,0.92126511,0,0)"
       rx="5.072"
       style="fill:#a4c639;stroke:#ffffff;stroke-width:7.16800022" />
    <ellipse
       d="m 238.17001,109.9 c 0,46.3643 -40.99729,83.95 -91.57,83.95 -50.572718,0 -91.570004,-37.5857 -91.570004,-83.95 0,-46.364302 40.997286,-83.949995 91.570004,-83.949995 50.57271,0 91.57,37.585693 91.57,83.949995 z"
       id="ellipse3070-6-3"
       ry="83.949997"
       cy="109.9"
       rx="91.57"
       cx="146.60001"
       sodipodi:cx="146.60001"
       sodipodi:cy="109.9"
       sodipodi:rx="91.57"
       sodipodi:ry="83.949997"
       style="fill:#a4c639;stroke:#ffffff;stroke-width:7.16800022;stroke-opacity:0"
       transform="matrix(0.99477123,-0.10212829,0.10212829,0.99477123,1.1164458,177.70373)" />
    <rect
       style="fill:#a4c639;stroke:#ffffff;stroke-width:7.16800022"
       id="use3073-0-3"
       rx="23.92"
       height="132.89999"
       width="47.84"
       y="383.92365"
       x="110.28425" />
    <line
       id="line3077-2-6"
       y2="265.58884"
       y1="285.7081"
       x2="256.427"
       x1="60.457005"
       style="fill:#a4c639;stroke:#ffffff;stroke-width:7.16800022" />
    <rect
       style="fill:#a4c639;stroke:#ffffff;stroke-width:7.16800022"
       rx="5.072"
       transform="matrix(-0.82302,0.5680124,0.5680124,0.82302,0,0)"
       height="43"
       width="10.144"
       y="193.86572"
       x="20.670485"
       id="rect3563-2" />
    <ellipse
       transform="matrix(-0.99477123,0.10212829,0.10212829,0.99477123,292.6839,147.76994)"
       style="fill:#a4c639;stroke:#ffffff;stroke-width:7.16800022;stroke-opacity:0"
       sodipodi:ry="83.949997"
       sodipodi:rx="91.57"
       sodipodi:cy="109.9"
       sodipodi:cx="146.60001"
       cx="146.60001"
       rx="91.57"
       cy="109.9"
       ry="83.949997"
       id="ellipse3565-8"
       d="m 238.17001,109.9 c 0,46.3643 -40.99729,83.95 -91.57,83.95 -50.572718,0 -91.570004,-37.5857 -91.570004,-83.95 0,-46.364302 40.997286,-83.949995 91.570004,-83.949995 50.57271,0 91.57,37.585693 91.57,83.949995 z" />
    <rect
       transform="matrix(-0.99948193,0.0321851,0.0321851,0.99948193,0,0)"
       style="fill:#a4c639;stroke:#ffffff;stroke-width:7.16800022"
       id="use3569-3"
       rx="23.92"
       height="132.89999"
       width="47.84"
       y="383.26489"
       x="-225.72647" />
    <rect
       transform="matrix(-0.99918701,0.04031532,0.04031532,0.99918701,0,0)"
       style="fill:#a4c639;stroke:#ffffff;stroke-width:7.16800022;stroke-opacity:0"
       rx="22.120001"
       height="181.8"
       width="183.2"
       y="266.53589"
       x="-243.7086"
       id="rect3571-9" />
    <line
       style="fill:#a4c639;stroke:#ffffff;stroke-width:7.16800022"
       x1="256.52649"
       x2="60.556492"
       y1="265.57864"
       y2="285.69788"
       id="line3573-1" />
    <circle
       style="fill:#ffffff"
       id="circle3081-6-2"
       r="7.6700001"
       cx="188.24001"
       cy="69.077003"
       sodipodi:cx="188.24001"
       sodipodi:cy="69.077003"
       sodipodi:rx="7.6700001"
       sodipodi:ry="7.6700001"
       d="m 195.91001,69.077003 c 0,4.236025 -3.43398,7.670001 -7.67,7.670001 -4.23603,0 -7.67,-3.433976 -7.67,-7.670001 0,-4.236024 3.43397,-7.67 7.67,-7.67 4.23602,0 7.67,3.433976 7.67,7.67 z"
       transform="matrix(0.99477123,-0.10212829,0.10212829,0.99477123,1.1164458,177.70373)" />
    <circle
       style="fill:#ffffff"
       id="circle3083-3-4"
       r="7.6700001"
       cx="104.88"
       cy="69.077003"
       sodipodi:cx="104.88"
       sodipodi:cy="69.077003"
       sodipodi:rx="7.6700001"
       sodipodi:ry="7.6700001"
       d="m 112.55,69.077003 c 0,4.236025 -3.43398,7.670001 -7.67,7.670001 -4.23603,0 -7.670003,-3.433976 -7.670003,-7.670001 0,-4.236024 3.433973,-7.67 7.670003,-7.67 4.23602,0 7.67,3.433976 7.67,7.67 z"
       transform="matrix(0.99477123,-0.10212829,0.10212829,0.99477123,1.1164458,183.462)" />
    <rect
       inkscape:transform-center-y="19.381524"
       inkscape:transform-center-x="-49.898302"
       transform="matrix(-0.74767349,0.66406652,0.66406652,0.74767349,0,0)"
       style="fill:#a4c639;stroke:#ffffff;stroke-width:7.16800022"
       id="rect3567-4"
       rx="23.92"
       height="132.89999"
       width="47.84"
       y="398.33746"
       x="-27.064293" />
    <rect
       transform="matrix(0.5967447,0.80243116,-0.80243116,0.5967447,0,0)"
       x="261.33801"
       y="135.65659"
       width="47.84"
       height="132.89999"
       rx="23.92"
       id="c-8-6"
       style="fill:#a4c639;stroke:#ffffff;stroke-width:7.16800022" />
    <path
       style="fill:#ffffff;fill-opacity:1;stroke:none"
       d="m 21.079476,286.39204 237.547654,-21.98313 -0.2779,30.35172 z"
       id="path3338"
       inkscape:connector-curvature="0"
       sodipodi:nodetypes="cccc" />
    <path
       style="fill:none;stroke:#000000;stroke-width:2.5;stroke-linecap:butt;stroke-linejoin:miter;stroke-miterlimit:4;stroke-opacity:1;stroke-dasharray:none"
       d="m 281.5067,275.02901 125.53023,-69.09921 25.3364,0 z"
       id="path4108"
       inkscape:connector-curvature="0" />
    <rect
       style="fill:#ffffff;fill-opacity:1;stroke:#000000;stroke-width:3.12097788;stroke-linejoin:miter;stroke-miterlimit:4;stroke-opacity:1;stroke-dasharray:none"
       id="rect4114"
       width="176.01331"
       height="87.335991"
       x="331.12268"
       y="120.80226"
       rx="34.817337" />
    <path
       style="fill:#ffffff;fill-opacity:1;stroke:none"
       d="m 400.70283,210.39245 14.53115,-8.75666 28.08003,-0.16865 -25.16348,9.27286 z"
       id="path4116"
       inkscape:connector-curvature="0"
       sodipodi:nodetypes="ccccc" />
    <text
       xml:space="preserve"
       style="font-size:40px;font-style:normal;font-weight:normal;line-height:125%;letter-spacing:0px;word-spacing:0px;fill:#000000;fill-opacity:1;stroke:none;font-family:Sans"
       x="354.06088"
       y="175.98682"
       id="text4118"
       sodipodi:linespacing="125%"><tspan
         sodipodi:role="line"
         id="tspan4120"
         x="354.06088"
         y="175.98682">@</tspan></text>
    <rect
       style="fill:#ffffff;fill-opacity:1;stroke:#000000;stroke-width:2.5;stroke-linecap:butt;stroke-linejoin:miter;stroke-miterlimit:0;stroke-opacity:1;stroke-dasharray:none"
       id="rect4166"
       width="60.872066"
       height="37.866905"
       x="415.64218"
       y="146.47035" />
    <path
       style="fill:none;stroke:#000000;stroke-width:2.5;stroke-linecap:butt;stroke-linejoin:round;stroke-miterlimit:4;stroke-opacity:1;stroke-dasharray:none"
       d="m 416.28186,146.70288 29.37259,18.24435 30.62725,-18.24435 z"
       id="path4168"
       inkscape:connector-curvature="0"
       sodipodi:nodetypes="cccc" />
  </g>
</svg>
