<?xml version="1.0" encoding="UTF-8" standalone="no"?>
<!-- Created with Inkscape (http://www.inkscape.org/) -->

<svg
   xmlns:dc="http://purl.org/dc/elements/1.1/"
   xmlns:cc="http://creativecommons.org/ns#"
   xmlns:rdf="http://www.w3.org/1999/02/22-rdf-syntax-ns#"
   xmlns:svg="http://www.w3.org/2000/svg"
   xmlns="http://www.w3.org/2000/svg"
   xmlns:xlink="http://www.w3.org/1999/xlink"
   version="1.1"
   width="338.5"
   height="513"
   id="svg2">
  <defs
     id="defs4" />
  <metadata
     id="metadata7">
    <rdf:RDF>
      <cc:Work
         rdf:about="">
        <dc:format>image/svg+xml</dc:format>
        <dc:type
           rdf:resource="http://purl.org/dc/dcmitype/StillImage" />
        <dc:title></dc:title>
      </cc:Work>
    </rdf:RDF>
  </metadata>
  <g
     transform="translate(0,-539.36218)"
     id="layer1">
    <rect
       width="234.67691"
       height="430.64655"
       rx="23.949028"
       ry="40.718853"
       x="106.78301"
       y="573.2663"
       transform="matrix(0.99770616,0.06769351,-0.06769351,0.99770616,0,0)"
       id="rect2995"
       style="fill:none;stroke:#000000;stroke-width:20;stroke-linecap:butt;stroke-linejoin:round;stroke-miterlimit:4;stroke-opacity:1;stroke-dasharray:none" />
    <rect
       width="57.578693"
       height="18.182745"
       rx="9.5964479"
       ry="18.182745"
       x="196.84734"
       y="962.33575"
       transform="matrix(0.99770616,0.06769351,-0.06769351,0.99770616,0,0)"
       id="rect3765"
       style="fill:none;stroke:#000000;stroke-width:3.70000005;stroke-linecap:butt;stroke-linejoin:round;stroke-miterlimit:4;stroke-opacity:1;stroke-dasharray:none" />
    <rect
       width="202.30632"
       height="354.83936"
       rx="8.6572504"
       ry="17.262453"
       x="121.97845"
       y="591.49219"
       transform="matrix(0.99770616,0.06769351,-0.06769351,0.99770616,0,0)"
       id="rect3767"
       style="fill:none;stroke:#000000;stroke-width:3.42419124;stroke-linecap:butt;stroke-linejoin:round;stroke-miterlimit:4;stroke-opacity:1;stroke-dasharray:none" />
    <g
       transform="matrix(0.6021886,0.04085798,-0.04208595,0.62028704,175.09264,722.74795)"
       id="g3909"
       style="fill:#a4c639">
      <use
         id="use3911"
         style="stroke:#ffffff;stroke-width:14.39999962"
         x="0"
         y="0"
         width="744.09448"
         height="1052.3622"
         xlink:href="#b" />
      <use
         transform="scale(-1,1)"
         id="use3913"
         x="0"
         y="0"
         width="744.09448"
         height="1052.3622"
         xlink:href="#a" />
      <g
         id="a"
         style="stroke:#ffffff;stroke-width:7.19999981">
        <rect
           width="13"
           height="86"
           rx="6.5"
           x="14"
           y="-86"
           transform="matrix(0.87461971,0.48480962,-0.48480962,0.87461971,0,0)"
           id="rect3916" />
        <rect
           width="48"
           height="133"
           rx="24"
           x="-143"
           y="41"
           id="c" />
        <use
           id="use3919"
           x="85"
           y="97"
           width="744.09448"
           height="1052.3622"
           xlink:href="#c" />
      </g>
      <g
         id="b">
        <ellipse
           cx="0"
           cy="41"
           rx="91"
           ry="84"
           id="ellipse3922" />
        <rect
           width="182"
           height="182"
           rx="22"
           x="-91"
           y="20"
           id="rect3924" />
      </g>
    </g>
    <g
       transform="matrix(0.6021886,0.04085798,-0.04208595,0.62028704,175.09264,722.74795)"
       id="g3926"
       style="fill:#ffffff;stroke:#ffffff;stroke-width:7.19999981">
      <path
         d="M -95,44.5 H 95"
         id="path3928" />
      <circle
         cx="-42"
         cy="0"
         r="4"
         id="circle3930" />
      <circle
         cx="42"
         cy="0"
         r="4"
         id="circle3932" />
    </g>
  </g>
</svg>
