<?xml version="1.0" encoding="UTF-8" standalone="no"?>
<!-- Created with Inkscape (http://www.inkscape.org/) -->

<svg
   xmlns:dc="http://purl.org/dc/elements/1.1/"
   xmlns:cc="http://creativecommons.org/ns#"
   xmlns:rdf="http://www.w3.org/1999/02/22-rdf-syntax-ns#"
   xmlns:svg="http://www.w3.org/2000/svg"
   xmlns="http://www.w3.org/2000/svg"
   xmlns:xlink="http://www.w3.org/1999/xlink"
   xmlns:sodipodi="http://sodipodi.sourceforge.net/DTD/sodipodi-0.dtd"
   xmlns:inkscape="http://www.inkscape.org/namespaces/inkscape"
   width="566.5"
   height="513"
   id="svg2"
   version="1.1"
   inkscape:version="0.48.4 r9939"
   sodipodi:docname="phone.svg">
  <defs
     id="defs4">
    <filter
       id="filter3889"
       inkscape:collect="always"
       color-interpolation-filters="sRGB">
      <feGaussianBlur
         id="feGaussianBlur3891"
         stdDeviation="0.93212891"
         inkscape:collect="always" />
    </filter>
  </defs>
  <sodipodi:namedview
     id="base"
     pagecolor="#ffffff"
     bordercolor="#666666"
     borderopacity="1.0"
     inkscape:pageopacity="0.0"
     inkscape:pageshadow="2"
     inkscape:zoom="0.49497475"
     inkscape:cx="693.52993"
     inkscape:cy="473.57941"
     inkscape:document-units="px"
     inkscape:current-layer="layer1"
     showgrid="false"
     inkscape:snap-bbox="false"
     width="651.5px"
     inkscape:window-width="1400"
     inkscape:window-height="785"
     inkscape:window-x="260"
     inkscape:window-y="529"
     inkscape:window-maximized="0" />
  <metadata
     id="metadata7">
    <rdf:RDF>
      <cc:Work
         rdf:about="">
        <dc:format>image/svg+xml</dc:format>
        <dc:type
           rdf:resource="http://purl.org/dc/dcmitype/StillImage" />
      </cc:Work>
    </rdf:RDF>
  </metadata>
  <g
     inkscape:label="Layer 1"
     inkscape:groupmode="layer"
     id="layer1"
     transform="translate(0,-539.36218)">
    <rect
       style="fill:none;stroke:#000000;stroke-width:20;stroke-linecap:butt;stroke-linejoin:round;stroke-miterlimit:4;stroke-opacity:1;stroke-dasharray:none"
       id="rect2995"
       width="234.67691"
       height="430.64655"
       x="378.85965"
       y="471.48019"
       rx="23.949028"
       ry="40.718853"
       transform="matrix(0.95832806,0.28566997,-0.28566997,0.95832806,0,0)" />
    <rect
       style="fill:none;stroke:#000000;stroke-width:3.70000005;stroke-linecap:butt;stroke-linejoin:round;stroke-miterlimit:4;stroke-opacity:1;stroke-dasharray:none"
       id="rect3765"
       width="57.578693"
       height="18.182745"
       x="468.92398"
       y="860.54962"
       rx="9.5964479"
       ry="18.182745"
       transform="matrix(0.95832806,0.28566997,-0.28566997,0.95832806,0,0)" />
    <rect
       style="fill:none;stroke:#000000;stroke-width:3.42419124;stroke-linecap:butt;stroke-linejoin:round;stroke-miterlimit:4;stroke-opacity:1;stroke-dasharray:none"
       id="rect3767"
       width="202.30632"
       height="354.83936"
       x="394.05508"
       y="489.70609"
       rx="8.6572504"
       ry="17.262453"
       transform="matrix(0.95832806,0.28566997,-0.28566997,0.95832806,0,0)" />
    <g
       style="fill:#a4c639"
       transform="matrix(0.57842104,0.17242271,-0.17760478,0.59580515,301.5059,723.74227)"
       id="g3909">
      <use
         height="1052.3622"
         width="744.09448"
         y="0"
         x="0"
         style="stroke:#ffffff;stroke-width:14.39999962"
         xlink:href="#b"
         id="use3911" />
      <use
         height="1052.3622"
         width="744.09448"
         y="0"
         x="0"
         xlink:href="#a"
         transform="scale(-1,1)"
         id="use3913" />
      <g
         style="stroke:#ffffff;stroke-width:7.19999981"
         id="a">
        <rect
           rx="6.5"
           transform="matrix(0.87461971,0.48480962,-0.48480962,0.87461971,0,0)"
           height="86"
           width="13"
           y="-86"
           x="14"
           id="rect3916" />
        <rect
           id="c"
           rx="24"
           height="133"
           width="48"
           y="41"
           x="-143" />
        <use
           height="1052.3622"
           width="744.09448"
           y="97"
           x="85"
           xlink:href="#c"
           id="use3919" />
      </g>
      <g
         id="b">
        <ellipse
           sodipodi:ry="84"
           sodipodi:rx="91"
           sodipodi:cy="41"
           sodipodi:cx="0"
           cx="0"
           d="m 91,41 c 0,46.391919 -40.742088,84 -91,84 -50.257912,0 -91,-37.608081 -91,-84 0,-46.391919 40.742088,-84 91,-84 50.257912,0 91,37.608081 91,84 z"
           cy="41"
           rx="91"
           ry="84"
           id="ellipse3922" />
        <rect
           rx="22"
           height="182"
           width="182"
           y="20"
           x="-91"
           id="rect3924" />
      </g>
    </g>
    <g
       style="fill:#ffffff;stroke:#ffffff;stroke-width:7.19999981"
       transform="matrix(0.57842104,0.17242271,-0.17760478,0.59580515,301.5059,723.74227)"
       id="g3926">
      <path
         inkscape:connector-curvature="0"
         d="M -95,44.5 H 95"
         id="path3928" />
      <circle
         sodipodi:ry="4"
         sodipodi:rx="4"
         sodipodi:cy="0"
         sodipodi:cx="-42"
         cy="0"
         d="m -38,0 c 0,2.209139 -1.790861,4 -4,4 -2.209139,0 -4,-1.790861 -4,-4 0,-2.209139 1.790861,-4 4,-4 2.209139,0 4,1.790861 4,4 z"
         cx="-42"
         r="4"
         id="circle3930" />
      <circle
         sodipodi:ry="4"
         sodipodi:rx="4"
         sodipodi:cy="0"
         sodipodi:cx="42"
         cy="0"
         d="m 46,0 c 0,2.209139 -1.790861,4 -4,4 -2.209139,0 -4,-1.790861 -4,-4 0,-2.209139 1.790861,-4 4,-4 2.209139,0 4,1.790861 4,4 z"
         cx="42"
         r="4"
         id="circle3932" />
    </g>
    <path
       style="fill:none;stroke:#a4c63a;stroke-width:10.58199978;stroke-linecap:butt;stroke-linejoin:miter;stroke-miterlimit:4;stroke-opacity:1;stroke-dasharray:none"
       d="m 496.76885,627.58693 c 0,0 -14.22845,16.81723 -21.33678,41.73394 -7.10835,24.91671 6.87299,28.2663 -2.28041,60.35148 -8.50462,29.81107 -22.90333,28.21195 -28.74233,48.67926 -5.83899,20.46729 -5.77605,54.4539 -5.77605,54.4539"
       id="path4373"
       inkscape:connector-curvature="0"
       sodipodi:nodetypes="csssc" />
    <path
       style="fill:none;stroke:#a4c63a;stroke-width:9.53241158;stroke-linecap:butt;stroke-linejoin:miter;stroke-miterlimit:4;stroke-opacity:1;stroke-dasharray:none"
       d="m 528.21347,665.3277 c 0,0 -13.42632,11.97338 -18.72778,30.90306 -5.30148,18.92969 9.58399,22.74627 2.75732,47.12199 -6.34269,22.64807 -21.51503,20.16832 -25.8697,35.71774 -4.35476,15.54938 -1.39517,42.2006 -1.39517,42.2006"
       id="path4373-7"
       inkscape:connector-curvature="0"
       sodipodi:nodetypes="csssc" />
    <path
       style="fill:none;stroke:#a4c63a;stroke-width:7.95895195;stroke-linecap:butt;stroke-linejoin:miter;stroke-miterlimit:4;stroke-opacity:1;stroke-dasharray:none"
       d="m 553.78151,714.2915 c 0,0 -12.7142,6.3565 -15.93626,18.42239 -3.22207,12.0659 13.03777,16.51864 8.88875,32.05588 -3.85497,14.43599 -20.24957,10.84645 -22.89627,20.75773 -2.6467,9.91127 3.8645,28.21867 3.8645,28.21867"
       id="path4373-4"
       inkscape:connector-curvature="0"
       sodipodi:nodetypes="csssc" />
    <path
       style="fill:none;stroke:#a4c63a;stroke-width:10.58199978;stroke-linecap:butt;stroke-linejoin:miter;stroke-miterlimit:4;stroke-opacity:1;stroke-dasharray:none"
       d="m 138.19416,711.94167 c 0,0 2.6982,21.86292 -4.99632,46.60489 -7.69451,24.74198 -21.22789,19.88965 -31.1361,51.74983 -9.205952,29.60201 3.71825,36.14764 -2.602252,56.47141 -6.32049,20.32376 -24.98189,48.7288 -24.98189,48.7288"
       id="path4373-0"
       inkscape:connector-curvature="0"
       sodipodi:nodetypes="csssc" />
    <path
       style="fill:none;stroke:#a4c63a;stroke-width:9.53241158;stroke-linecap:butt;stroke-linejoin:miter;stroke-miterlimit:4;stroke-opacity:1;stroke-dasharray:none"
       d="m 91.217518,726.30568 c 0,0 4.67915,17.37047 -1.24926,36.11327 -5.92839,18.74281 -20.47402,13.78622 -28.10804,37.92127 -7.09304,22.42439 6.96069,28.6567 2.09082,44.05255 -4.86977,15.39586 -21.93868,36.07674 -21.93868,36.07674"
       id="path4373-7-9"
       inkscape:connector-curvature="0"
       sodipodi:nodetypes="csssc" />
    <path
       style="fill:none;stroke:#a4c63a;stroke-width:7.95895195;stroke-linecap:butt;stroke-linejoin:miter;stroke-miterlimit:4;stroke-opacity:1;stroke-dasharray:none"
       d="m 43.013358,753.27857 c 0,0 7.15868,12.28045 3.24839,24.14119 -3.91027,11.86075 -19.95428,6.68396 -24.98957,21.95702 -4.67836,14.19054 11.00578,20.16342 7.79377,29.90618 -3.21202,9.74276 -18.68435,21.49704 -18.68435,21.49704"
       id="path4373-4-4"
       inkscape:connector-curvature="0"
       sodipodi:nodetypes="csssc" />
  </g>
</svg>
